<?xml version="1.0" standalone="no"?>
<!DOCTYPE svg PUBLIC "-//W3C//DTD SVG 20010904//EN"
 "http://www.w3.org/TR/2001/REC-SVG-20010904/DTD/svg10.dtd">
<svg version="1.0" xmlns="http://www.w3.org/2000/svg"
 width="81.000000pt" height="81.000000pt" viewBox="0 0 162.000000 162.000000"
 preserveAspectRatio="xMidYMid meet">

<g transform="translate(0.000000,162.000000) scale(0.100000,-0.100000)"
fill="#ffffff" stroke="none">
<path d="M681 1274 c-169 -45 -306 -191 -342 -362 -24 -120 10 -290 72 -352
36 -35 63 -40 223 -40 97 0 138 4 160 15 16 9 31 14 33 11 2 -2 -13 -45 -33
-95 -20 -51 -33 -95 -29 -99 3 -4 32 -6 63 -5 286 13 497 283 438 561 -20 96
-59 166 -103 187 -45 22 -344 18 -365 -4 -11 -12 -10 -13 7 -5 11 5 83 10 160
11 125 3 137 1 110 -11 -16 -7 -38 -22 -48 -33 -18 -21 -131 -302 -124 -310 2
-2 23 46 46 107 24 60 47 110 51 110 12 0 50 -105 50 -139 0 -59 -31 -132 -74
-176 -38 -38 -110 -75 -122 -62 -3 2 7 35 21 72 14 38 24 70 22 72 -2 2 -16
-30 -32 -69 -15 -40 -38 -84 -51 -98 -24 -24 -29 -25 -172 -28 -131 -2 -144
-1 -117 12 54 24 74 59 160 281 47 120 90 225 96 231 6 7 8 17 5 23 -4 5 10
53 29 106 19 54 35 99 35 101 0 10 -121 1 -169 -12z m79 -222 c0 -12 -141
-366 -149 -375 -17 -17 -51 77 -51 139 1 99 55 183 145 225 44 20 55 23 55 11z"/>
</g>
</svg>
