<?xml version="1.0" encoding="UTF-8" standalone="no"?>
<!DOCTYPE svg PUBLIC "-//W3C//DTD SVG 1.1//EN" "http://www.w3.org/Graphics/SVG/1.1/DTD/svg11.dtd">
<svg version="1.1" xmlns="http://www.w3.org/2000/svg" xmlns:xlink="http://www.w3.org/1999/xlink" preserveAspectRatio="xMidYMid meet" viewBox="-1 -0.9789379140497019 685.9995005038905 685.9786875000001" width="100" height="100"><defs><path d="M662.41 277.15L663.27 277.23L664.12 277.35L664.96 277.51L665.79 277.69L666.6 277.91L667.4 278.16L668.19 278.44L668.96 278.75L669.72 279.09L670.46 279.45L671.18 279.85L671.89 280.27L672.58 280.72L673.25 281.19L673.9 281.69L674.53 282.21L675.14 282.75L675.73 283.32L676.3 283.91L676.85 284.52L677.37 285.15L677.87 285.8L678.34 286.47L678.78 287.16L679.2 287.87L679.6 288.6L679.97 289.34L680.3 290.09L680.61 290.87L680.89 291.65L681.14 292.45L681.36 293.27L681.55 294.09L681.7 294.93L681.82 295.78L681.91 296.64L681.96 297.51L681.98 298.39L681.96 299.26L681.91 300.13L681.82 300.99L681.7 301.84L681.55 302.68L681.36 303.51L681.14 304.32L680.89 305.12L680.61 305.91L680.3 306.68L679.97 307.44L679.6 308.18L679.2 308.9L678.78 309.61L678.34 310.3L677.87 310.97L677.37 311.62L676.85 312.25L676.3 312.86L675.73 313.45L675.14 314.02L674.53 314.57L673.9 315.09L673.25 315.58L672.58 316.06L671.89 316.5L671.18 316.92L670.46 317.32L669.72 317.68L668.96 318.02L668.19 318.33L667.4 318.61L666.6 318.86L665.79 319.08L664.96 319.27L664.12 319.42L663.27 319.54L662.41 319.63L661.54 319.68L660.67 319.7L390.72 319.7L389.84 319.68L388.97 319.63L388.11 319.54L387.26 319.42L386.42 319.27L385.6 319.08L384.78 318.86L383.98 318.61L383.19 318.33L382.42 318.02L381.67 317.68L380.92 317.32L380.2 316.92L379.49 316.5L378.8 316.06L378.13 315.58L377.48 315.09L376.85 314.57L376.24 314.02L375.65 313.45L375.08 312.86L374.54 312.25L374.01 311.62L373.52 310.97L373.04 310.3L372.6 309.61L372.18 308.9L371.78 308.18L371.42 307.44L371.08 306.68L370.77 305.91L370.49 305.12L370.24 304.32L370.02 303.51L369.84 302.68L369.68 301.84L369.56 300.99L369.47 300.13L369.42 299.26L369.4 298.39L369.42 297.51L369.47 296.64L369.56 295.78L369.68 294.93L369.84 294.09L370.02 293.27L370.24 292.45L370.49 291.65L370.77 290.87L371.08 290.09L371.42 289.34L371.78 288.6L372.18 287.87L372.6 287.16L373.04 286.47L373.52 285.8L374.01 285.15L374.54 284.52L375.08 283.91L375.65 283.32L376.24 282.75L376.85 282.21L377.48 281.69L378.13 281.19L378.8 280.72L379.49 280.27L380.2 279.85L380.92 279.45L381.67 279.09L382.42 278.75L383.19 278.44L383.98 278.16L384.78 277.91L385.6 277.69L386.42 277.51L387.26 277.35L388.11 277.23L388.97 277.15L389.84 277.09L390.72 277.07L660.67 277.07L661.54 277.09L662.41 277.15Z" id="g58FTvzvWb"></path><path d="M555.76 170.53L556.57 170.61L557.39 170.71L558.19 170.86L559 171.03L559.8 171.23L560.59 171.46L561.37 171.73L562.14 172.03L562.91 172.35L563.66 172.71L564.41 173.1L565.14 173.53L565.85 173.98L566.55 174.46L567.24 174.98L567.91 175.53L568.56 176.1L569.2 176.71L675.76 283.27L676.36 283.91L676.94 284.56L677.49 285.23L678 285.91L678.49 286.62L678.94 287.33L679.36 288.06L679.75 288.8L680.11 289.56L680.44 290.32L680.74 291.1L681 291.88L681.23 292.67L681.44 293.47L681.61 294.27L681.75 295.08L681.86 295.89L681.94 296.71L681.98 297.53L682 298.35L681.98 299.16L681.94 299.98L681.86 300.8L681.75 301.61L681.61 302.42L681.44 303.22L681.23 304.02L681 304.81L680.74 305.59L680.44 306.37L680.11 307.13L679.75 307.89L679.36 308.63L678.94 309.36L678.49 310.07L678 310.78L677.49 311.46L676.94 312.13L676.36 312.78L675.76 313.42L569.2 419.98L568.88 420.29L568.56 420.59L568.24 420.89L567.91 421.18L567.57 421.45L567.23 421.73L566.89 421.99L566.55 422.25L566.2 422.49L565.84 422.73L565.49 422.96L565.13 423.19L564.76 423.4L564.4 423.61L564.03 423.81L563.65 424L563.28 424.19L562.9 424.37L562.52 424.53L562.13 424.69L561.75 424.85L561.36 424.99L560.97 425.13L560.57 425.26L560.18 425.38L559.78 425.49L559.38 425.6L558.98 425.7L558.58 425.79L558.18 425.87L557.78 425.94L557.37 426.01L556.97 426.07L556.56 426.12L556.15 426.16L555.74 426.2L555.34 426.22L554.93 426.24L554.52 426.25L554.11 426.26L553.7 426.25L553.29 426.24L552.88 426.22L552.47 426.2L552.06 426.16L551.66 426.12L551.25 426.07L550.84 426.01L550.44 425.94L550.04 425.87L549.63 425.79L549.23 425.7L548.83 425.6L548.43 425.49L548.04 425.38L547.64 425.26L547.25 425.13L546.86 424.99L546.47 424.85L546.09 424.7L545.7 424.54L545.32 424.37L544.94 424.19L544.57 424.01L544.2 423.82L543.83 423.62L543.46 423.41L543.1 423.2L542.74 422.98L542.38 422.75L542.03 422.51L541.68 422.26L541.34 422.01L541 421.75L540.66 421.48L540.33 421.2L540 420.91L539.68 420.62L539.36 420.32L539.04 420.01L538.44 419.37L537.86 418.72L537.31 418.05L536.8 417.37L536.31 416.66L535.86 415.95L535.44 415.22L535.05 414.47L534.69 413.72L534.36 412.95L534.07 412.18L533.8 411.4L533.57 410.6L533.36 409.81L533.19 409L533.05 408.19L532.94 407.38L532.86 406.57L532.82 405.75L532.8 404.93L532.82 404.11L532.86 403.3L532.94 402.48L533.05 401.67L533.19 400.86L533.36 400.06L533.57 399.26L533.8 398.47L534.07 397.68L534.36 396.91L534.69 396.14L535.05 395.39L535.44 394.65L535.86 393.92L536.31 393.2L536.8 392.5L537.31 391.81L537.86 391.14L538.44 390.49L539.04 389.86L630.55 298.36L539.04 206.86L538.44 206.23L537.86 205.57L537.31 204.9L536.8 204.22L536.31 203.52L535.86 202.8L535.44 202.07L535.05 201.33L534.69 200.57L534.36 199.81L534.07 199.03L533.8 198.25L533.57 197.46L533.36 196.66L533.19 195.86L533.05 195.05L532.94 194.24L532.86 193.42L532.82 192.6L532.8 191.79L532.82 190.97L532.86 190.15L532.94 189.34L533.05 188.52L533.19 187.71L533.36 186.91L533.57 186.11L533.8 185.32L534.07 184.54L534.36 183.76L534.69 183L535.05 182.25L535.44 181.5L535.86 180.77L536.31 180.06L536.8 179.35L537.31 178.67L537.86 178L538.44 177.35L539.04 176.71L539.68 176.1L540.33 175.53L541 174.98L541.69 174.46L542.39 173.98L543.11 173.53L543.84 173.1L544.58 172.71L545.33 172.35L546.1 172.03L546.87 171.73L547.66 171.46L548.45 171.23L549.25 171.03L550.05 170.86L550.86 170.71L551.67 170.61L552.49 170.53L553.3 170.48L554.12 170.47L554.94 170.48L555.76 170.53Z" id="c1e35pYjYQ"></path><path d="M57.74 0.03L58.2 0.04L58.65 0.05L59.1 0.06L59.55 0.08L60 0.1L60.45 0.12L60.89 0.15L61.34 0.18L61.78 0.22L62.23 0.25L62.67 0.29L63.11 0.34L63.56 0.39L64 0.44L64.44 0.49L64.88 0.55L65.32 0.61L65.76 0.67L66.2 0.74L66.63 0.81L67.07 0.88L67.51 0.96L67.94 1.04L68.38 1.13L68.81 1.21L69.25 1.3L69.68 1.4L70.12 1.5L70.55 1.6L70.99 1.7L71.42 1.81L71.85 1.92L72.29 2.04L72.72 2.16L73.15 2.28L73.59 2.4L74.02 2.53L74.45 2.66L245.46 59.64L247.19 60.27L248.89 60.96L250.56 61.69L252.19 62.47L253.8 63.3L255.37 64.17L256.91 65.09L258.42 66.05L259.89 67.06L261.32 68.1L262.72 69.19L264.08 70.32L265.4 71.48L266.68 72.68L267.93 73.92L269.13 75.19L270.3 76.5L271.42 77.84L272.5 79.21L273.53 80.62L274.53 82.05L275.47 83.52L276.38 85.01L277.24 86.53L278.05 88.07L278.81 89.65L279.53 91.24L280.2 92.86L280.81 94.5L281.38 96.16L281.9 97.84L282.37 99.54L282.78 101.25L283.14 102.99L283.45 104.74L283.7 106.5L283.9 108.28L284.04 110.07L284.13 111.87L284.16 113.68L284.16 625.17L284.11 627.51L283.97 629.82L283.73 632.11L283.41 634.37L283 636.61L282.5 638.81L281.92 640.98L281.25 643.11L280.51 645.21L279.68 647.27L278.78 649.29L277.81 651.26L276.75 653.2L275.63 655.08L274.44 656.92L273.18 658.71L271.85 660.45L270.46 662.13L269.01 663.76L267.5 665.34L265.92 666.85L264.29 668.3L262.61 669.69L260.87 671.02L259.08 672.28L257.24 673.47L255.36 674.6L253.43 675.65L251.45 676.63L249.43 677.53L247.37 678.35L245.27 679.1L243.14 679.76L240.97 680.35L238.77 680.84L236.54 681.25L234.27 681.58L231.98 681.81L229.67 681.95L227.33 682L226.87 682L226.42 681.99L225.96 681.99L225.51 681.97L225.06 681.96L224.61 681.94L224.16 681.92L223.71 681.9L223.27 681.87L222.82 681.84L222.37 681.8L221.93 681.77L221.49 681.73L221.04 681.68L220.6 681.64L220.16 681.58L219.72 681.53L219.28 681.47L218.84 681.41L218.4 681.35L217.96 681.28L217.52 681.21L217.09 681.14L216.65 681.06L216.21 680.98L215.78 680.9L215.34 680.81L214.91 680.72L214.47 680.62L214.04 680.52L213.61 680.42L213.17 680.32L212.74 680.21L212.31 680.1L211.87 679.98L211.44 679.87L211.01 679.74L210.58 679.62L210.14 679.49L209.71 679.36L38.7 622.38L36.97 621.75L35.27 621.06L33.6 620.33L31.96 619.55L30.36 618.72L28.78 617.85L27.25 616.93L25.74 615.97L24.27 614.96L22.84 613.92L21.44 612.83L20.08 611.71L18.76 610.54L17.47 609.34L16.23 608.1L15.03 606.83L13.86 605.52L12.74 604.18L11.66 602.81L10.62 601.4L9.63 599.97L8.68 598.5L7.78 597.01L6.92 595.49L6.11 593.95L5.35 592.38L4.63 590.78L3.96 589.16L3.34 587.52L2.77 585.86L2.26 584.18L1.79 582.49L1.38 580.77L1.02 579.03L0.71 577.29L0.46 575.52L0.26 573.74L0.11 571.95L0.03 570.15L0 568.34L0 56.85L0.05 54.51L0.19 52.2L0.42 49.91L0.75 47.65L1.16 45.41L1.65 43.21L2.24 41.04L2.9 38.91L3.65 36.81L4.47 34.75L5.37 32.73L6.35 30.76L7.4 28.82L8.53 26.94L9.72 25.1L10.98 23.31L12.3 21.57L13.7 19.89L15.15 18.26L16.66 16.68L18.24 15.17L19.87 13.72L21.55 12.33L23.29 11L25.08 9.74L26.92 8.55L28.8 7.42L30.73 6.37L32.71 5.4L34.73 4.49L36.79 3.67L38.89 2.92L41.02 2.26L43.19 1.68L45.39 1.18L47.63 0.77L49.89 0.44L52.18 0.21L54.49 0.07L56.83 0.02L57.29 0.02L57.74 0.03ZM55.67 42.69L55.1 42.75L54.54 42.83L53.98 42.93L53.43 43.06L52.89 43.21L52.35 43.37L51.83 43.56L51.32 43.77L50.81 43.99L50.32 44.24L49.83 44.5L49.36 44.78L48.9 45.08L48.46 45.4L48.02 45.73L47.6 46.08L47.19 46.44L46.8 46.82L46.42 47.21L46.06 47.62L45.71 48.04L45.37 48.48L45.06 48.92L44.76 49.38L44.48 49.86L44.22 50.34L43.97 50.83L43.74 51.34L43.54 51.85L43.35 52.38L43.18 52.91L43.04 53.45L42.91 54L42.81 54.56L42.73 55.12L42.67 55.69L42.64 56.27L42.62 56.85L42.62 568.34L42.63 568.79L42.65 569.24L42.69 569.69L42.74 570.14L42.81 570.58L42.89 571.02L42.98 571.46L43.09 571.89L43.21 572.32L43.35 572.75L43.5 573.17L43.66 573.58L43.83 573.99L44.02 574.4L44.22 574.8L44.43 575.19L44.65 575.58L44.88 575.96L45.12 576.33L45.38 576.7L45.65 577.06L45.92 577.41L46.21 577.75L46.51 578.08L46.82 578.41L47.13 578.72L47.46 579.03L47.8 579.33L48.14 579.62L48.5 579.89L48.86 580.16L49.23 580.41L49.61 580.66L50 580.89L50.4 581.11L50.8 581.32L51.21 581.52L51.63 581.7L52.05 581.87L52.48 582.03L222.69 638.75L222.78 638.78L222.88 638.81L222.97 638.84L223.07 638.87L223.17 638.89L223.27 638.92L223.37 638.94L223.47 638.97L223.57 638.99L223.68 639.02L223.78 639.04L223.89 639.06L224 639.08L224.11 639.1L224.22 639.12L224.33 639.14L224.44 639.16L224.55 639.18L224.67 639.2L224.79 639.21L224.9 639.23L225.02 639.24L225.14 639.26L225.26 639.27L225.38 639.28L225.51 639.29L225.63 639.31L225.75 639.32L225.88 639.33L226.01 639.33L226.14 639.34L226.26 639.35L226.39 639.36L226.52 639.36L226.66 639.37L226.79 639.37L226.92 639.37L227.06 639.37L227.19 639.38L227.33 639.38L227.91 639.36L228.49 639.33L229.06 639.27L229.62 639.19L230.18 639.09L230.73 638.96L231.27 638.82L231.81 638.65L232.33 638.46L232.84 638.25L233.35 638.03L233.84 637.78L234.33 637.52L234.8 637.24L235.26 636.94L235.7 636.63L236.14 636.29L236.56 635.94L236.97 635.58L237.36 635.2L237.74 634.81L238.1 634.4L238.45 633.98L238.78 633.54L239.1 633.1L239.4 632.64L239.68 632.17L239.94 631.68L240.19 631.19L240.41 630.68L240.62 630.17L240.81 629.65L240.97 629.11L241.12 628.57L241.24 628.02L241.35 627.46L241.43 626.9L241.49 626.33L241.52 625.75L241.53 625.17L241.53 113.68L241.52 113.23L241.5 112.78L241.46 112.33L241.41 111.88L241.35 111.44L241.27 111L241.17 110.56L241.06 110.13L240.94 109.7L240.81 109.27L240.66 108.85L240.5 108.44L240.32 108.03L240.14 107.62L239.94 107.22L239.73 106.83L239.51 106.44L239.28 106.06L239.03 105.69L238.78 105.32L238.51 104.96L238.23 104.61L237.94 104.27L237.65 103.94L237.34 103.61L237.02 103.3L236.69 102.99L236.36 102.69L236.01 102.41L235.66 102.13L235.3 101.86L234.92 101.61L234.54 101.36L234.16 101.13L233.76 100.91L233.36 100.7L232.95 100.5L232.53 100.32L232.1 100.15L231.67 99.99L61.46 43.27L61.37 43.24L61.28 43.21L61.18 43.18L61.09 43.16L60.99 43.13L60.89 43.1L60.79 43.08L60.69 43.05L60.58 43.03L60.48 43L60.37 42.98L60.27 42.96L60.16 42.94L60.05 42.92L59.94 42.9L59.83 42.88L59.72 42.86L59.6 42.84L59.49 42.82L59.37 42.81L59.25 42.79L59.14 42.78L59.02 42.76L58.9 42.75L58.77 42.74L58.65 42.73L58.53 42.72L58.4 42.7L58.28 42.7L58.15 42.69L58.02 42.68L57.89 42.67L57.77 42.67L57.63 42.66L57.5 42.66L57.37 42.65L57.24 42.65L57.1 42.65L56.97 42.65L56.83 42.64L56.25 42.66L55.67 42.69Z" id="afyhx5kDa"></path><path d="M382.91 0.28L386.06 0.6L389.17 1.05L392.24 1.61L395.27 2.3L398.26 3.1L401.19 4.01L404.07 5.04L406.91 6.17L409.68 7.41L412.4 8.75L415.06 10.2L417.65 11.74L420.18 13.38L422.64 15.11L425.03 16.94L427.34 18.85L429.58 20.85L431.75 22.93L433.83 25.09L435.83 27.33L437.74 29.65L439.56 32.04L441.29 34.5L442.93 37.03L444.48 39.62L445.92 42.28L447.26 44.99L448.5 47.77L449.64 50.6L450.66 53.49L451.58 56.42L452.38 59.4L453.06 62.43L453.63 65.5L454.07 68.61L454.39 71.76L454.59 74.95L454.65 78.17L454.65 206.04L454.63 206.92L454.58 207.78L454.49 208.64L454.37 209.49L454.22 210.33L454.03 211.16L453.81 211.97L453.56 212.77L453.28 213.56L452.98 214.33L452.64 215.09L452.27 215.83L451.88 216.55L451.46 217.26L451.01 217.95L450.54 218.62L450.04 219.27L449.52 219.9L448.97 220.52L448.41 221.1L447.82 221.67L447.21 222.22L446.57 222.74L445.92 223.24L445.25 223.71L444.56 224.15L443.85 224.58L443.13 224.97L442.39 225.34L441.63 225.67L440.86 225.98L440.07 226.26L439.27 226.51L438.46 226.73L437.63 226.92L436.79 227.07L435.95 227.19L435.09 227.28L434.22 227.33L433.34 227.35L432.46 227.33L431.59 227.28L430.73 227.19L429.88 227.07L429.05 226.92L428.22 226.73L427.41 226.51L426.61 226.26L425.82 225.98L425.05 225.67L424.29 225.34L423.55 224.97L422.82 224.58L422.12 224.15L421.43 223.71L420.76 223.24L420.1 222.74L419.47 222.22L418.86 221.67L418.27 221.1L417.7 220.52L417.16 219.9L416.64 219.27L416.14 218.62L415.67 217.95L415.22 217.26L414.8 216.55L414.41 215.83L414.04 215.09L413.7 214.33L413.39 213.56L413.11 212.77L412.86 211.97L412.65 211.16L412.46 210.33L412.31 209.49L412.19 208.64L412.1 207.78L412.04 206.92L412.03 206.04L412.03 78.17L412 76.7L411.91 75.26L411.76 73.83L411.56 72.41L411.3 71.02L410.99 69.64L410.63 68.29L410.21 66.95L409.75 65.64L409.23 64.36L408.67 63.09L408.06 61.86L407.4 60.65L406.7 59.47L405.95 58.32L405.16 57.2L404.33 56.12L403.47 55.07L402.56 54.05L401.61 53.06L400.63 52.12L399.61 51.21L398.56 50.34L397.47 49.51L396.35 48.72L395.2 47.98L394.02 47.27L392.82 46.62L391.58 46.01L390.32 45.44L389.03 44.93L387.72 44.46L386.39 44.04L385.03 43.68L383.66 43.37L382.26 43.11L380.85 42.91L379.42 42.76L377.97 42.67L376.51 42.64L56.83 42.64L55.96 42.63L55.09 42.57L54.23 42.49L53.38 42.37L52.54 42.21L51.71 42.03L50.9 41.81L50.1 41.56L49.31 41.28L48.54 40.97L47.78 40.63L47.04 40.26L46.32 39.87L45.61 39.45L44.92 39L44.25 38.53L43.6 38.03L42.97 37.51L42.36 36.97L41.77 36.4L41.2 35.81L40.65 35.2L40.13 34.57L39.64 33.92L39.16 33.25L38.72 32.56L38.3 31.85L37.9 31.12L37.54 30.38L37.2 29.63L36.89 28.85L36.61 28.07L36.36 27.27L36.14 26.45L35.95 25.63L35.8 24.79L35.68 23.94L35.59 23.08L35.54 22.21L35.52 21.33L35.54 20.45L35.59 19.59L35.68 18.73L35.8 17.88L35.95 17.04L36.14 16.21L36.36 15.4L36.61 14.6L36.89 13.81L37.2 13.04L37.54 12.28L37.9 11.54L38.3 10.82L38.72 10.11L39.16 9.42L39.64 8.75L40.13 8.1L40.65 7.47L41.2 6.85L41.77 6.27L42.36 5.7L42.97 5.15L43.6 4.63L44.25 4.13L44.92 3.66L45.61 3.22L46.32 2.79L47.04 2.4L47.78 2.03L48.54 1.7L49.31 1.39L50.1 1.11L50.9 0.86L51.71 0.64L52.54 0.45L53.38 0.3L54.23 0.18L55.09 0.09L55.96 0.04L56.83 0.02L376.51 0.02L379.73 0.09L382.91 0.28Z" id="ajXkuojBZ"></path><path d="M435.09 369.5L435.95 369.58L436.79 369.7L437.63 369.86L438.46 370.04L439.27 370.26L440.07 370.51L440.86 370.79L441.63 371.1L442.39 371.44L443.13 371.8L443.85 372.2L444.56 372.62L445.25 373.07L445.92 373.54L446.57 374.04L447.21 374.56L447.82 375.1L448.41 375.67L448.97 376.26L449.52 376.87L450.04 377.5L450.54 378.15L451.01 378.82L451.46 379.51L451.88 380.22L452.27 380.94L452.64 381.69L452.98 382.44L453.28 383.22L453.56 384L453.81 384.8L454.03 385.62L454.22 386.44L454.37 387.28L454.49 388.13L454.58 388.99L454.63 389.86L454.65 390.74L454.65 518.61L454.59 521.82L454.39 525.01L454.07 528.16L453.63 531.27L453.06 534.34L452.38 537.37L451.58 540.35L450.66 543.29L449.64 546.17L448.5 549L447.26 551.78L445.92 554.5L444.48 557.15L442.93 559.75L441.29 562.28L439.56 564.74L437.74 567.13L435.83 569.44L433.83 571.68L431.75 573.85L429.58 575.93L427.34 577.92L425.03 579.84L422.64 581.66L420.18 583.39L417.65 585.03L415.06 586.58L412.4 588.02L409.68 589.36L406.91 590.6L404.07 591.74L401.19 592.76L398.26 593.68L395.27 594.48L392.24 595.16L389.17 595.73L386.06 596.17L382.91 596.49L379.73 596.69L376.51 596.75L262.84 596.75L261.97 596.73L261.1 596.68L260.24 596.59L259.39 596.47L258.55 596.32L257.72 596.13L256.91 595.91L256.11 595.67L255.32 595.39L254.55 595.08L253.79 594.74L253.05 594.37L252.33 593.98L251.62 593.56L250.93 593.11L250.26 592.64L249.61 592.14L248.98 591.62L248.37 591.08L247.78 590.51L247.21 589.92L246.66 589.31L246.14 588.68L245.65 588.02L245.17 587.35L244.73 586.66L244.31 585.96L243.91 585.23L243.55 584.49L243.21 583.73L242.9 582.96L242.62 582.17L242.37 581.37L242.15 580.56L241.97 579.73L241.81 578.9L241.69 578.05L241.6 577.19L241.55 576.32L241.53 575.44L241.55 574.56L241.6 573.69L241.69 572.83L241.81 571.99L241.97 571.15L242.15 570.32L242.37 569.51L242.62 568.71L242.9 567.92L243.21 567.15L243.55 566.39L243.91 565.65L244.31 564.92L244.73 564.22L245.17 563.53L245.65 562.86L246.14 562.21L246.66 561.57L247.21 560.96L247.78 560.37L248.37 559.81L248.98 559.26L249.61 558.74L250.26 558.24L250.93 557.77L251.62 557.32L252.33 556.9L253.05 556.51L253.79 556.14L254.55 555.8L255.32 555.5L256.11 555.22L256.91 554.97L257.72 554.75L258.55 554.56L259.39 554.41L260.24 554.29L261.1 554.2L261.97 554.15L262.84 554.13L376.51 554.13L377.97 554.1L379.42 554.01L380.85 553.86L382.26 553.66L383.66 553.41L385.03 553.09L386.39 552.73L387.72 552.31L389.03 551.85L390.32 551.33L391.58 550.77L392.82 550.16L394.02 549.5L395.2 548.8L396.35 548.05L397.47 547.26L398.56 546.43L399.61 545.57L400.63 544.66L401.61 543.71L402.56 542.73L403.47 541.71L404.33 540.66L405.16 539.57L405.95 538.45L406.7 537.3L407.4 536.12L408.06 534.91L408.67 533.68L409.23 532.42L409.75 531.13L410.21 529.82L410.63 528.49L410.99 527.13L411.3 525.75L411.56 524.36L411.76 522.95L411.91 521.52L412 520.07L412.03 518.61L412.03 390.74L412.04 389.86L412.1 388.99L412.19 388.13L412.31 387.28L412.46 386.44L412.65 385.62L412.86 384.8L413.11 384L413.39 383.22L413.7 382.44L414.04 381.69L414.41 380.94L414.8 380.22L415.22 379.51L415.67 378.82L416.14 378.15L416.64 377.5L417.16 376.87L417.7 376.26L418.27 375.67L418.86 375.1L419.47 374.56L420.1 374.04L420.76 373.54L421.43 373.07L422.12 372.62L422.82 372.2L423.55 371.8L424.29 371.44L425.05 371.1L425.82 370.79L426.61 370.51L427.41 370.26L428.22 370.04L429.05 369.86L429.88 369.7L430.73 369.58L431.59 369.5L432.46 369.44L433.34 369.42L434.22 369.44L435.09 369.5Z" id="a2jJensusG"></path></defs><g><g><use xlink:href="#g58FTvzvWb" opacity="1" fill="#ffffff" fill-opacity="1"></use><g><use xlink:href="#g58FTvzvWb" opacity="1" fill-opacity="0" stroke="#000000" stroke-width="1" stroke-opacity="0"></use></g></g><g><use xlink:href="#c1e35pYjYQ" opacity="1" fill="#ffffff" fill-opacity="1"></use><g><use xlink:href="#c1e35pYjYQ" opacity="1" fill-opacity="0" stroke="#000000" stroke-width="1" stroke-opacity="0"></use></g></g><g><use xlink:href="#afyhx5kDa" opacity="1" fill="#ffffff" fill-opacity="1"></use><g><use xlink:href="#afyhx5kDa" opacity="1" fill-opacity="0" stroke="#000000" stroke-width="1" stroke-opacity="0"></use></g></g><g><use xlink:href="#ajXkuojBZ" opacity="1" fill="#ffffff" fill-opacity="1"></use><g><use xlink:href="#ajXkuojBZ" opacity="1" fill-opacity="0" stroke="#000000" stroke-width="1" stroke-opacity="0"></use></g></g><g><use xlink:href="#a2jJensusG" opacity="1" fill="#ffffff" fill-opacity="1"></use><g><use xlink:href="#a2jJensusG" opacity="1" fill-opacity="0" stroke="#000000" stroke-width="1" stroke-opacity="0"></use></g></g></g></svg>